<?xml version="1.0" encoding="utf-8"?>
<!-- Generator: Adobe Illustrator 16.0.0, SVG Export Plug-In . SVG Version: 6.00 Build 0)  -->
<!DOCTYPE svg PUBLIC "-//W3C//DTD SVG 1.1//EN" "http://www.w3.org/Graphics/SVG/1.1/DTD/svg11.dtd">
<svg version="1.1" id="Layer_1" xmlns="http://www.w3.org/2000/svg" xmlns:xlink="http://www.w3.org/1999/xlink" x="0px" y="0px"
	 width="240.24px" height="240.24px" viewBox="0 0 240.24 240.24" enable-background="new 0 0 240.24 240.24" xml:space="preserve">
<g>
	<g>
		<path fill-rule="evenodd" clip-rule="evenodd" fill="none" d="M0.24,240.24c0-80,0-160,0-240c80,0,160,0,240,0c0,80,0,160,0,240
			C160.24,240.24,80.24,240.24,0.24,240.24z M186.52,104.681c2.054-0.799,3.6-2.194,4.661-4.102c0.258-0.462,0.367-1.048,0.4-1.586
			c0.206-3.341,0.338-6.688,0.587-10.026c0.037-0.496,0.472-1.059,0.878-1.413c1.167-1.016,2.183-2.107,2.628-3.632
			c0.673-2.297-0.951-4.539-3.308-4.429c-1.471,0.068-2.941,0.288-4.392,0.554c-0.579,0.106-1.148,0.458-1.638,0.813
			c-0.864,0.626-1.641,1.123-2.825,0.666c-0.867-0.334-1.874-0.397-2.821-0.411c-0.983-0.015-1.262,0.505-0.92,1.418
			c0.595,1.589,1.869,2.494,3.357,3.045c1.338,0.496,2.749,0.816,4.146,1.13c0.783,0.176,1.344,0.458,1.448,1.33
			c0.117,0.99,0.277,1.975,0.39,2.965c0.551,4.812-0.593,9.275-2.806,13.515c-0.016,0.095-0.032,0.19-0.048,0.285
			C186.346,104.762,186.433,104.722,186.52,104.681z M161.559,152.626c-0.549-1.563-1.004-3.167-1.663-4.682
			c-2.235-5.141-4.525-10.258-6.849-15.359c-0.218-0.478-0.771-0.856-1.248-1.153c-2.534-1.575-5.092-3.11-7.645-4.653
			c-0.238-0.144-0.501-0.245-0.953-0.465c0.411,1.223,0.746,2.187,1.061,3.155c2.488,7.653,4.025,15.525,5.378,23.439
			c0.429,6.453,1.014,12.901,1.225,19.361c0.12,3.687-0.371,7.393-0.588,11.09c-0.409,2.44-0.752,4.894-1.239,7.318
			c-2.429,12.085-7.277,23.038-15.404,32.407c-1.914,2.207-4.026,4.242-6.203,6.519c0.61-0.199,1.084-0.275,1.48-0.495
			c3.246-1.795,6.604-3.427,9.69-5.466c10.344-6.835,18.361-15.702,23.039-27.333c1.674-4.16,2.881-8.456,3.268-12.949
			c0.174-1.904,0.519-3.811,0.486-5.711c-0.061-3.623-0.016-7.296-0.602-10.851C164.005,162.026,162.662,157.346,161.559,152.626z
			 M100.842,116.64c-0.694,3.398-1.54,6.773-2.052,10.198c-1.134,7.584-1.176,15.173,0.472,22.712
			c0.862,4.294,2.298,8.39,4.311,12.275c3.579,6.912,6.453,14.072,7.83,21.773c0.154,1.588,0.371,3.172,0.452,4.763
			c0.357,7.03-0.984,13.634-5.462,19.25c-1.639,2.057-3.73,3.753-5.476,5.475c-0.038,0.005,0.228-0.003,0.48-0.064
			c3.307-0.811,6.316-2.266,8.948-4.408c7.993-6.51,10.739-15.444,11.546-25.254c0.653-6.482,0.209-12.935-0.851-19.325
			c-0.807-4.869-1.974-9.679-2.98-14.515c-0.134-0.394-0.286-0.782-0.399-1.183c-1.134-3.987-2.145-8.014-3.424-11.953
			c-1.199-3.693-2.285-7.39-2.607-11.272c-0.234-2.82-0.424-5.646-0.633-8.469c0.232-4.725,0.042-9.451,0.729-14.179
			c1.184-8.14,3.064-16.066,6.089-23.718c0.11-0.277,0.179-0.571,0.267-0.857c-0.297,0.052-0.401,0.167-0.482,0.297
			c-5.049,8.069-9.295,16.552-12.67,25.44C103.317,107.87,102.189,112.296,100.842,116.64z M80.684,98.88
			c-2.592,5.851-4.566,11.909-6.026,18.134c-1.119,4.77-1.945,9.583-1.941,14.505c-0.028,0.116-0.078,0.231-0.081,0.348
			c-0.417,13.431,3.313,25.407,12.586,35.368c2.131,2.29,4.546,4.315,7.027,6.647c0.059-0.512,0.091-0.617,0.08-0.719
			c-1.261-11.617-1.759-23.266-1.44-34.947c0.059-2.154,0.105-4.309,0.158-6.462c0.055-1.469,0.035-2.945,0.18-4.404
			c0.248-2.487,0.589-4.966,0.912-7.445c0.268-2.06,0.459-4.138,0.873-6.169c1.011-4.964,2.13-9.906,3.206-14.857
			c0.891-2.476,1.696-4.988,2.689-7.422c2.714-6.653,6.272-12.765,11.788-17.538c1.22-1.056,2.538-1.998,3.816-2.997
			c-3.746-4.273-7.136-8.673-8.26-14.509c-0.418,0.507-0.754,0.896-1.07,1.299c-5.255,6.711-10.04,13.743-14.366,21.085
			C87,85.269,83.489,91.897,80.684,98.88z M131.07,165.84c-0.006,0.599-0.026,1.197-0.017,1.796
			c0.16,9.542-0.386,19.02-2.645,28.334c-1.886,7.776-4.774,15.112-10.18,21.161c-2.16,2.417-4.738,4.46-7.014,6.57
			c0.231-0.067,0.713-0.183,1.176-0.348c11.971-4.282,21.045-11.945,26.803-23.32c5.455-10.777,6.651-22.32,5.716-34.193
			c-0.265-2.521-0.438-5.055-0.81-7.56c-1.766-11.917-5.268-23.355-9.654-34.542c-0.913-2.329-1.877-4.638-2.836-6.999
			c-3.483,1.986-5.822-0.04-8.22-2.137c0.03,0.247,0.032,0.364,0.061,0.474c2.342,8.979,4.273,18.05,5.399,27.255
			C129.806,150.141,130.347,158.002,131.07,165.84z M44.245,124.077c0.061,0.188,0.105,0.384,0.184,0.564
			c4.304,9.974,10.964,18.242,18.646,25.771c0.034,0.033,0.129,0.004-0.087,0.004c-0.546-4.65-1.275-9.312-1.589-14.001
			c-0.274-4.098-0.082-8.226-0.096-12.34c0.038-0.275,0.091-0.55,0.112-0.827c0.544-7.401,1.868-14.659,4.231-21.696
			c1.115-3.322,2.479-6.562,3.73-9.838c0.227-0.417,0.472-0.824,0.677-1.251c2.357-4.911,5.161-9.554,8.395-13.934
			c7.942-10.757,17.839-19.356,29.197-26.319c1.109-0.68,1.643-1.211,1.388-2.738c-0.304-1.819,0.084-3.753,0.173-5.644
			c-0.183,0.062-0.551,0.172-0.91,0.308c-9.018,3.409-17.705,7.522-26.046,12.354c-10.214,5.916-19.748,12.726-27.725,21.519
			C50.4,80.555,46.848,85.502,44.442,91.2C39.51,102.13,39.704,113.091,44.245,124.077z M190.041,183.359
			c-0.086-1.445-0.052-2.91-0.283-4.332c-0.411-2.521-0.891-5.039-1.505-7.519c-2.521-10.183-6.685-19.725-11.49-29.005
			c-1.365-2.636-2.818-5.225-4.287-7.938c-0.969,1.325-2.113,2.114-3.568,1.944c-1.302-0.153-2.566-0.628-3.903-0.975
			c0.077,0.3,0.16,0.639,0.252,0.975c2.947,10.875,4.881,21.925,5.465,33.18c0.236,4.548,0.124,9.112,0.17,13.67
			c-0.403,3.606-0.668,7.235-1.238,10.815c-1.461,9.173-4.331,17.852-9.721,25.528c-1.618,2.304-3.498,4.423-5.303,6.682
			c0.408-0.032,0.828-0.032,1.236-0.104c5.509-0.966,10.771-2.659,15.68-5.373c7.341-4.057,12.957-9.729,16.087-17.601
			C190.184,196.894,191.066,190.23,190.041,183.359z M143.745,100.806c0.23,1.29,0.628,2.578,0.642,3.871
			c0.014,1.209,0.266,2.294,1.104,3.048c1.918,1.729,3.824,3.526,5.974,4.93c4.597,3.002,9.651,5.125,14.784,7.043
			c0.628,0.235,0.95,0.471,1.076,1.273c0.432,2.761,2.459,4.473,4.32,6.409c0.313-1.851,0.585-3.45,0.856-5.05
			c0.11-0.008,0.22-0.016,0.329-0.023c0.639,2.272,2.236,3.692,4.338,5.034c-0.809-2.007-1.687-3.819,0.052-5.664
			c1.092,1.914,2.555,3.111,4.331,3.587c-0.522-2.021-1.039-4.017-1.556-6.014c0.117-0.046,0.234-0.092,0.351-0.138
			c1.413,1.108,2.751,2.363,4.891,2.641c-0.911-1.239-1.996-2.146-1.892-3.717c2.022,0.836,3.946,1.192,6.031,0.86
			c-1.581-0.746-3.104-1.352-4.497-2.176c-0.564-0.334-1.063-1.096-1.219-1.751c-0.631-2.656-0.52-5.297,0.672-7.798
			c-1.452-0.907-1.45-0.905-2.657,0.02c-0.253,0.194-0.521,0.371-0.791,0.541c-6.204,3.906-13.029,4.915-20.143,3.968
			c-1.853-0.247-3.675-1.292-5.33-2.275c-1.444-0.857-1.527-2.412-0.442-3.592c0.259-0.281,0.941-0.481,1.27-0.342
			c4.089,1.735,8.375,2,12.71,1.686c1.896-0.137,3.867-0.364,5.626-1.023c3.577-1.339,6.663-3.576,9.561-6.054
			c0.475-0.36,0.964-0.701,1.419-1.083c0.722-0.606,1.595-1.112,1.593-2.243c-0.005-2.703-0.002-5.406-0.002-7.825
			c-1.975-0.821-3.64-1.39-5.184-2.189c-1.539-0.798-2.838-1.952-3.483-3.648c-0.368-0.969-0.021-1.782,0.646-2.52
			c0.647-0.716,1.286-0.612,2.124-0.285c0.873,0.34,1.855,0.461,2.8,0.522c0.359,0.023,0.877-0.3,1.098-0.62
			c0.678-0.981,1.486-1.411,2.722-1.339c1.889,0.109,3.787,0.029,5.962,0.029c-2.037-4.262-4.381-7.854-8.742-9.652
			c-2.056-1.281-4.214-2.426-6.144-3.876c-2.869-2.156-5.574-4.531-8.354-6.807c-0.846-0.692-1.613-1.718-2.58-1.975
			c-2.27-0.602-4.41-1.371-6.354-2.696c-0.202-0.138-0.681-0.13-0.854,0.018c-0.179,0.152-0.246,0.589-0.174,0.848
			c0.155,0.554,0.434,1.073,0.687,1.667c-1.792-0.799-2.532-3.391-1.748-5.829c1.653,1.193,3.313,2.39,4.972,3.587
			c0.15-0.079,0.302-0.157,0.452-0.236c-0.052-0.521,0.065-1.15-0.188-1.54c-0.692-1.063-1.451-2.114-2.342-3.012
			c-4.55-4.586-9.765-8.36-15.033-12.223c-0.635,2.037-2.019,3.374-3.659,4.514c-0.247,0.172-0.461,0.546-0.496,0.849
			c-0.405,3.457-2.006,6.281-4.528,8.609c-0.89,0.821-1.861,1.551-2.872,2.385c0.275,0.077,0.46,0.143,0.649,0.181
			c3.354,0.67,6.184,2.108,7.86,5.282c0.112,0.212,0.385,0.446,0.607,0.474c1.62,0.206,3.244,0.414,4.873,0.503
			c0.51,0.028,1.118-0.195,1.545-0.497c1.101-0.776,2.021-0.614,2.794,0.564c0.148,0.226,0.479,0.368,0.755,0.467
			c1.532,0.547,2.808,1.341,3.247,3.058c0.062,0.243,0.287,0.466,0.483,0.648c2.132,1.978,4.273,3.945,6.413,5.915
			c0.753,1.08,1.506,2.16,2.259,3.24c-0.08,0.084-0.16,0.169-0.24,0.254c-2.108-2.123-4.229-4.234-6.321-6.373
			c-1.134-1.159-2.332-1.64-3.929-0.87c-0.493,0.238-1.262,0.188-1.803-0.009c-1.235-0.451-2.377-1.159-3.613-1.607
			c-1.785-0.646-3.656-1.064-5.419-1.761c-0.817-0.322-1.669-0.937-2.145-1.658c-0.832-1.263-2.019-1.781-3.329-1.781
			c-1.898,0-3.8,0.287-5.694,0.494c-0.943,0.103-1.563,0.584-1.817,1.589c-0.184,0.723-0.557,1.414-0.934,2.068
			c-1.23,2.133-2.689,3.989-5.412,4.259c-0.234,0.023-0.524,0.349-0.639,0.602c-1.472,3.243-1.309,6.546-0.424,9.94
			c1.079-0.612,2.012-1.231,3.016-1.693c4.504-2.07,9.234-2.027,14-1.336c6.904,1.001,13.371,3.404,19.665,6.316
			c1.911,0.885,3.777,1.867,5.798,2.872c-0.618,1.207-1.166,2.275-1.649,3.218c-3.181-1.407-6.103-2.795-9.097-4.002
			c-5.5-2.216-11.11-3.998-17.11-4.332c-4.434-0.247-8.082,1.238-10.938,4.563c-0.807,0.94-1.504,2.136-1.797,3.327
			c-1.128,4.571,0.616,8.567,2.585,12.305c0.694-1.182,1.209-2.497,2.101-3.466c1.174-1.277,2.891-1.672,4.597-1.742
			c0.625-0.026,1.35,0.161,1.884,0.487C140.967,96.42,142.593,98.416,143.745,100.806z M106.398,36.958
			c-6.425-0.1-12.871,0.401-19.277,1.438C76.902,40.051,67.1,42.927,58.26,48.5c-8.216,5.179-14.236,12.161-17.264,21.513
			c-0.507,1.566-0.879,3.177-1.313,4.767c0.43-0.035,0.595-0.191,0.769-0.335c4.585-3.797,9.008-7.814,13.788-11.349
			c14.823-10.962,30.868-19.441,49.1-23.256c0.255-0.053,0.542-0.173,0.718-0.354C104.846,38.672,105.601,37.826,106.398,36.958z
			 M63.652,37.605c15.634-8.284,31.647-10.493,48.454-4.266c0.017-2.167,0.645-4.051,2.427-5.167
			c1.29-0.808,2.796-1.334,4.272-1.758c1.175-0.337,2.448-0.33,3.678-0.475c-11.384-3.86-22.961-6.171-35-4.758
			c-6.64,0.78-12.752,2.969-17.752,7.637C67.105,31.27,65.127,34.171,63.652,37.605z M136.68,39.557
			c-1.426-3.522-3.032-6.713-5.86-9.099c-2.538-2.142-5.32-2.251-8.054-0.405c-2.514,1.698-4.22,4.112-5.799,6.628
			c-0.179,0.286-0.242,0.68-0.256,1.028c-0.181,4.361-0.124,8.702,0.59,13.034c0.654,3.968,3.104,6.481,6.389,8.326
			c2.104,1.182,4.203,0.792,5.818-0.795c-0.568-1.422-0.956-1.684-3.324-2.193c-0.104-1.154-0.284-2.34-0.304-3.529
			c-0.073-4.511-0.145-9.022-0.112-13.533c0.013-1.759,0.835-3.23,2.287-4.292c1.095-0.801,2.223-0.771,3.1,0.255
			c0.612,0.717,1.178,1.55,1.491,2.428c0.413,1.158,0.878,1.94,2.29,1.757C135.412,39.106,135.931,39.377,136.68,39.557z
			 M135.133,25.479c-0.146-0.593-0.296-1.294-0.489-1.983c-1.021-3.622-2.23-7.17-4.381-10.306c-1.146-1.673-2.501-3.159-4.624-3.56
			c-4.85-0.915-9.731-1.355-14.657-0.747c-2.734,0.338-5.369,1.011-7.874,2.622c0.334,0.129,0.508,0.195,0.682,0.264
			c4.668,1.852,9.413,3.536,13.982,5.605c4.219,1.911,8.278,4.195,11.109,8.092c0.123,0.169,0.465,0.259,0.7,0.251
			C131.394,25.658,133.205,25.566,135.133,25.479z M132.13,8.15c0.177,0.275,0.229,0.381,0.303,0.469
			c4.963,5.913,7.159,12.478,4.769,20.136c-0.072,0.232-0.081,0.589,0.048,0.764c1.132,1.533,2.302,3.038,3.532,4.644
			c3.7-3.266,6.111-6.99,6.344-11.846c0.206-4.308-1.583-7.917-4.168-11.204c-0.414-0.526-0.849-1.128-1.414-1.427
			C138.632,8.146,135.517,7.695,132.13,8.15z M152.538,14.606c3.221,7.491-0.698,13.029-4.015,18.758
			c2.64,0.053,4.51,1.475,6.142,3.403c5.026-4.706,7.323-10.267,6.128-17.09c-0.299-1.707-1.188-3.037-2.792-3.619
			C156.311,15.445,154.516,15.118,152.538,14.606z"/>
		<path fill-rule="evenodd" clip-rule="evenodd" fill="#AE0101" d="M167.357,73.366c-0.753-1.08-1.506-2.16-2.259-3.24
			c0.67-0.175,1.341-0.498,2.013-0.502c5.557-0.041,11.113-0.015,16.671-0.038c0.435-0.002,0.869-0.22,1.304-0.337
			c4.361,1.797,6.705,5.39,8.742,9.652c-2.175,0-4.073,0.081-5.962-0.029c-1.235-0.072-2.044,0.358-2.722,1.339
			c-0.221,0.32-0.738,0.643-1.098,0.62c-0.944-0.061-1.927-0.182-2.8-0.522c-0.838-0.327-1.477-0.431-2.124,0.285
			c-0.667,0.738-1.014,1.55-0.646,2.52c0.646,1.696,1.944,2.85,3.483,3.648c1.544,0.8,3.209,1.368,5.184,2.189
			c0,2.418-0.003,5.122,0.002,7.825c0.002,1.131-0.871,1.636-1.593,2.243c-0.455,0.382-0.944,0.724-1.419,1.083
			c-1.207-0.156-2.239,0.541-3.501,0.529c-11.791-0.118-23.583-0.073-35.375-0.06c-0.505,0-1.009,0.154-1.514,0.236
			c-1.152-2.391-2.778-4.386-5.053-5.775c-0.534-0.327-1.259-0.513-1.884-0.487c-1.706,0.07-3.423,0.465-4.597,1.742
			c-0.892,0.969-1.406,2.285-2.101,3.466c-1.969-3.737-3.713-7.734-2.585-12.305c0.293-1.19,0.99-2.387,1.797-3.327
			c2.855-3.326,6.504-4.81,10.938-4.563c6,0.334,11.61,2.116,17.11,4.332c2.994,1.207,5.916,2.596,9.097,4.002
			c0.483-0.943,1.031-2.011,1.649-3.218c-2.021-1.005-3.887-1.987-5.798-2.872c-6.294-2.913-12.761-5.315-19.665-6.316
			c-4.766-0.691-9.496-0.734-14,1.336c-1.004,0.462-1.937,1.082-3.016,1.693c-0.885-3.394-1.048-6.698,0.424-9.94
			c0.114-0.253,0.404-0.579,0.639-0.602c2.723-0.27,4.182-2.126,5.412-4.259c0.377-0.654,0.75-1.345,0.934-2.068
			c0.255-1.005,0.874-1.486,1.817-1.589c1.895-0.207,3.796-0.495,5.694-0.494c1.311,0,2.497,0.519,3.329,1.781
			c0.476,0.721,1.327,1.335,2.145,1.658c1.763,0.697,3.634,1.115,5.419,1.761c1.236,0.448,2.378,1.156,3.613,1.607
			c0.541,0.197,1.31,0.248,1.803,0.009c1.597-0.77,2.795-0.289,3.929,0.87c2.093,2.139,4.213,4.25,6.321,6.373
			c0.098,0.168,0.196,0.337,0.294,0.505c0.056-0.024,0.111-0.048,0.168-0.073C167.505,73.823,167.432,73.595,167.357,73.366z"/>
		<path fill-rule="evenodd" clip-rule="evenodd" fill="#AA0101" d="M44.442,91.2c2.406-5.698,5.958-10.646,10.084-15.193
			c7.978-8.793,17.511-15.603,27.725-21.519c8.341-4.831,17.028-8.944,26.046-12.354c0.359-0.136,0.727-0.246,0.91-0.308
			c-0.089,1.891-0.477,3.825-0.173,5.644c0.254,1.527-0.279,2.059-1.388,2.738c-11.358,6.963-21.255,15.563-29.197,26.319
			c-3.234,4.38-6.038,9.023-8.395,13.934c-0.205,0.427-0.45,0.834-0.677,1.251c-0.449-0.091-0.898-0.261-1.348-0.262
			c-7.274-0.017-14.549-0.006-21.824-0.022C45.617,91.428,45.03,91.28,44.442,91.2z"/>
		<path fill-rule="evenodd" clip-rule="evenodd" fill="#DA0101" d="M190.041,183.359c1.025,6.871,0.143,13.534-2.409,19.949
			c-3.13,7.871-8.746,13.544-16.087,17.601c-4.909,2.714-10.171,4.407-15.68,5.373c-0.408,0.071-0.828,0.071-1.236,0.104
			c1.805-2.259,3.685-4.378,5.303-6.682c5.39-7.677,8.26-16.355,9.721-25.528c0.57-3.58,0.835-7.209,1.238-10.815
			C177.274,183.36,183.657,183.359,190.041,183.359z"/>
		<path fill-rule="evenodd" clip-rule="evenodd" fill="#B80101" d="M44.442,91.2c0.588,0.08,1.175,0.228,1.763,0.229
			c7.275,0.016,14.55,0.005,21.824,0.022c0.45,0.001,0.898,0.171,1.348,0.262c-1.251,3.277-2.615,6.516-3.73,9.838
			c-2.363,7.038-3.687,14.295-4.231,21.696c-0.021,0.277-0.074,0.552-0.112,0.827c-5.686,0.001-11.373,0.001-17.059,0.002
			C39.704,113.091,39.51,102.13,44.442,91.2z"/>
		<path fill-rule="evenodd" clip-rule="evenodd" fill="#CD0101" d="M190.041,183.359c-6.384,0-12.767,0.001-19.15,0.001
			c-0.046-4.558,0.066-9.122-0.17-13.67c-0.584-11.255-2.518-22.305-5.465-33.18c-0.092-0.336-0.175-0.675-0.252-0.975
			c1.337,0.347,2.602,0.821,3.903,0.975c1.455,0.17,2.6-0.619,3.568-1.944c1.469,2.713,2.922,5.302,4.287,7.938
			c4.806,9.28,8.97,18.822,11.49,29.005c0.614,2.479,1.094,4.997,1.505,7.519C189.989,180.449,189.955,181.914,190.041,183.359z"/>
		<path fill-rule="evenodd" clip-rule="evenodd" fill="#D60202" d="M144.909,165.84c0.936,11.873-0.261,23.416-5.716,34.193
			c-5.758,11.375-14.832,19.038-26.803,23.32c-0.463,0.165-0.944,0.28-1.176,0.348c2.276-2.11,4.854-4.153,7.014-6.57
			c5.406-6.049,8.294-13.385,10.18-21.161c2.259-9.314,2.805-18.792,2.645-28.334c-0.01-0.599,0.011-1.197,0.017-1.796
			C135.684,165.84,140.296,165.84,144.909,165.84z"/>
		<path fill-rule="evenodd" clip-rule="evenodd" fill="#A40202" d="M185.086,69.248c-0.435,0.117-0.869,0.335-1.304,0.337
			c-5.558,0.023-11.114-0.003-16.671,0.038c-0.672,0.005-1.343,0.327-2.013,0.502c-2.14-1.97-4.281-3.938-6.413-5.915
			c-0.196-0.182-0.422-0.405-0.483-0.648c-0.439-1.717-1.715-2.51-3.247-3.058c-0.276-0.099-0.606-0.241-0.755-0.467
			c-0.772-1.178-1.693-1.34-2.794-0.564c-0.427,0.301-1.035,0.524-1.545,0.497c-1.629-0.089-3.253-0.297-4.873-0.503
			c-0.223-0.028-0.495-0.262-0.607-0.474c-1.677-3.174-4.507-4.612-7.86-5.282c-0.189-0.038-0.374-0.104-0.649-0.181
			c1.011-0.834,1.982-1.564,2.872-2.385c2.522-2.328,4.123-5.152,4.528-8.609c0.035-0.303,0.249-0.677,0.496-0.849
			c1.641-1.14,3.024-2.477,3.659-4.514c5.269,3.863,10.483,7.637,15.033,12.223c0.891,0.898,1.649,1.949,2.342,3.012
			c0.253,0.39,0.136,1.02,0.188,1.54c-0.15,0.079-0.302,0.157-0.452,0.236c-1.659-1.198-3.318-2.395-4.972-3.587
			c-0.784,2.438-0.044,5.03,1.748,5.829c-0.253-0.594-0.531-1.113-0.687-1.667c-0.072-0.259-0.005-0.695,0.174-0.848
			c0.173-0.148,0.651-0.156,0.854-0.018c1.943,1.325,4.084,2.094,6.354,2.696c0.967,0.256,1.734,1.283,2.58,1.975
			c2.78,2.276,5.485,4.651,8.354,6.807C180.872,66.821,183.03,67.966,185.086,69.248z"/>
		<path fill-rule="evenodd" clip-rule="evenodd" fill="#BA0303" d="M143.745,100.806c0.505-0.082,1.009-0.235,1.514-0.236
			c11.792-0.013,23.584-0.058,35.375,0.06c1.262,0.012,2.294-0.685,3.501-0.529c-2.897,2.478-5.983,4.715-9.561,6.054
			c-1.759,0.659-3.729,0.886-5.626,1.023c-4.335,0.313-8.621,0.049-12.71-1.686c-0.328-0.139-1.011,0.061-1.27,0.342
			c-1.085,1.18-1.002,2.734,0.442,3.592c1.655,0.983,3.478,2.028,5.33,2.275c7.113,0.947,13.938-0.062,20.143-3.968
			c0.271-0.17,0.538-0.347,0.791-0.541c1.207-0.925,1.205-0.927,2.657-0.02c-1.191,2.501-1.303,5.142-0.672,7.798
			c0.155,0.656,0.654,1.417,1.219,1.751c1.393,0.825,2.916,1.43,4.497,2.176c-2.085,0.332-4.009-0.024-6.031-0.86
			c-0.104,1.571,0.98,2.478,1.892,3.717c-2.14-0.277-3.478-1.532-4.891-2.641c-0.116,0.046-0.233,0.092-0.351,0.138
			c0.517,1.997,1.033,3.993,1.556,6.014c-1.776-0.476-3.239-1.673-4.331-3.587c-1.738,1.845-0.86,3.657-0.052,5.664
			c-2.102-1.342-3.699-2.762-4.338-5.034c-0.109,0.008-0.219,0.016-0.329,0.023c-0.271,1.6-0.543,3.199-0.856,5.05
			c-1.861-1.937-3.889-3.648-4.32-6.409c-0.126-0.803-0.448-1.039-1.076-1.273c-5.133-1.919-10.188-4.042-14.784-7.043
			c-2.149-1.404-4.056-3.201-5.974-4.93c-0.838-0.754-1.09-1.839-1.104-3.048C144.373,103.384,143.976,102.096,143.745,100.806z"/>
		<path fill-rule="evenodd" clip-rule="evenodd" fill="#BB0101" d="M96.217,98.879c-1.076,4.951-2.195,9.893-3.206,14.857
			c-0.414,2.032-0.605,4.109-0.873,6.169c-0.323,2.479-0.664,4.958-0.912,7.445c-0.146,1.459-0.125,2.936-0.18,4.404
			c-5.485,0.002-10.971,0.011-16.456-0.006c-0.625-0.001-1.249-0.149-1.874-0.229c-0.003-4.922,0.822-9.735,1.941-14.505
			c1.46-6.225,3.434-12.284,6.026-18.134C85.862,98.88,91.04,98.88,96.217,98.879z"/>
		<path fill-rule="evenodd" clip-rule="evenodd" fill="#AD0202" d="M96.217,98.879c-5.178,0-10.355,0-15.533,0
			c2.805-6.983,6.315-13.611,10.13-20.083c4.327-7.342,9.111-14.375,14.366-21.085c0.316-0.403,0.651-0.792,1.07-1.299
			c1.125,5.836,4.515,10.236,8.26,14.509c-1.278,0.999-2.596,1.941-3.816,2.997c-5.516,4.773-9.073,10.885-11.788,17.538
			C97.913,93.892,97.108,96.403,96.217,98.879z"/>
		<path fill-rule="evenodd" clip-rule="evenodd" fill="#C60202" d="M144.909,165.84c-4.613,0-9.226,0-13.839,0
			c-0.724-7.838-1.265-15.699-2.221-23.509c-1.126-9.205-3.058-18.276-5.399-27.255c-0.028-0.11-0.03-0.227-0.061-0.474
			c2.397,2.097,4.736,4.123,8.22,2.137c0.959,2.361,1.923,4.67,2.836,6.999c4.387,11.187,7.889,22.625,9.654,34.542
			C144.471,160.785,144.645,163.319,144.909,165.84z"/>
		<path fill-rule="evenodd" clip-rule="evenodd" fill="#C70202" d="M72.717,131.52c0.625,0.08,1.249,0.229,1.874,0.229
			c5.485,0.017,10.97,0.008,16.456,0.006c-0.052,2.153-0.099,4.308-0.158,6.462c-0.319,11.682,0.179,23.33,1.44,34.947
			c0.011,0.102-0.021,0.207-0.08,0.719c-2.48-2.332-4.896-4.357-7.027-6.647c-9.272-9.961-13.002-21.938-12.586-35.368
			C72.639,131.751,72.688,131.636,72.717,131.52z"/>
		<path fill-rule="evenodd" clip-rule="evenodd" fill="#A40303" d="M106.398,36.958c-0.797,0.868-1.552,1.713-2.34,2.526
			c-0.176,0.182-0.462,0.301-0.718,0.354c-18.232,3.814-34.277,12.294-49.1,23.256c-4.78,3.535-9.203,7.551-13.788,11.349
			c-0.174,0.145-0.339,0.301-0.769,0.335c0.435-1.59,0.806-3.201,1.313-4.767C44.024,60.66,50.044,53.679,58.26,48.5
			c8.84-5.573,18.642-8.448,28.861-10.103C93.527,37.36,99.973,36.858,106.398,36.958z"/>
		<path fill-rule="evenodd" clip-rule="evenodd" fill="#CE0101" d="M118.06,149.52c1.007,4.836,2.174,9.646,2.98,14.515
			c1.06,6.391,1.504,12.843,0.851,19.325c-2.591,0-5.183-0.02-7.773,0.012c-0.906,0.011-1.81,0.148-2.715,0.228
			c-1.377-7.701-4.25-14.861-7.83-21.773c-2.013-3.886-3.449-7.981-4.311-12.275C105.528,149.54,111.793,149.53,118.06,149.52z"/>
		<path fill-rule="evenodd" clip-rule="evenodd" fill="#D90202" d="M164.907,183.36c-0.387,4.493-1.594,8.789-3.268,12.949
			c-4.678,11.631-12.695,20.498-23.039,27.333c-3.087,2.039-6.444,3.671-9.69,5.466c-0.396,0.22-0.87,0.296-1.48,0.495
			c2.177-2.276,4.289-4.312,6.203-6.519c8.127-9.369,12.976-20.322,15.404-32.407c0.487-2.425,0.83-4.878,1.239-7.318
			C155.153,183.36,160.03,183.36,164.907,183.36z"/>
		<path fill-rule="evenodd" clip-rule="evenodd" fill="#C20101" d="M118.06,149.52c-6.266,0.011-12.532,0.021-18.797,0.03
			c-1.647-7.539-1.606-15.128-0.472-22.712c0.512-3.425,1.357-6.8,2.052-10.198c3.384,0.001,6.769,0.002,10.153,0.002
			c0.209,2.823,0.399,5.648,0.633,8.469c0.322,3.883,1.408,7.579,2.607,11.272c1.279,3.939,2.29,7.966,3.424,11.953
			C117.774,148.737,117.925,149.126,118.06,149.52z"/>
		<path fill-rule="evenodd" clip-rule="evenodd" fill="#9D0303" d="M63.652,37.605c1.475-3.435,3.453-6.336,6.078-8.787
			c5-4.668,11.112-6.857,17.752-7.637c12.039-1.413,23.616,0.897,35,4.758c-1.229,0.146-2.503,0.138-3.678,0.475
			c-1.476,0.424-2.982,0.95-4.272,1.758c-1.782,1.116-2.41,3-2.427,5.167C95.299,27.113,79.286,29.321,63.652,37.605z"/>
		<path fill-rule="evenodd" clip-rule="evenodd" fill="#CE0101" d="M164.907,183.36c-4.877,0-9.754,0-14.631-0.001
			c0.217-3.697,0.708-7.403,0.588-11.09c-0.211-6.46-0.796-12.908-1.225-19.361c3.228-0.009,6.456-0.004,9.684-0.039
			c0.746-0.009,1.49-0.158,2.235-0.243c1.104,4.72,2.446,9.4,3.233,14.173c0.586,3.555,0.541,7.228,0.602,10.851
			C165.426,179.55,165.081,181.456,164.907,183.36z"/>
		<path fill-rule="evenodd" clip-rule="evenodd" fill="#A20303" d="M136.68,39.557c-0.749-0.18-1.268-0.451-1.744-0.39
			c-1.412,0.183-1.877-0.6-2.29-1.757c-0.313-0.878-0.879-1.711-1.491-2.428c-0.877-1.026-2.005-1.056-3.1-0.255
			c-1.452,1.063-2.274,2.533-2.287,4.292c-0.032,4.51,0.039,9.022,0.112,13.533c0.02,1.189,0.2,2.375,0.304,3.529
			c2.368,0.509,2.756,0.771,3.324,2.193c-1.615,1.587-3.714,1.977-5.818,0.795c-3.285-1.845-5.734-4.358-6.389-8.326
			c-0.714-4.332-0.771-8.673-0.59-13.034c0.014-0.348,0.077-0.742,0.256-1.028c1.579-2.516,3.286-4.93,5.799-6.628
			c2.733-1.846,5.516-1.736,8.054,0.405C133.647,32.844,135.254,36.035,136.68,39.557z"/>
		<path fill-rule="evenodd" clip-rule="evenodd" fill="#9B0303" d="M135.133,25.479c-1.928,0.087-3.739,0.179-5.552,0.237
			c-0.235,0.008-0.577-0.083-0.7-0.251c-2.831-3.897-6.891-6.181-11.109-8.092c-4.569-2.069-9.314-3.753-13.982-5.605
			c-0.174-0.069-0.348-0.135-0.682-0.264c2.505-1.611,5.14-2.284,7.874-2.622c4.926-0.608,9.808-0.168,14.657,0.747
			c2.123,0.401,3.478,1.887,4.624,3.56c2.15,3.136,3.36,6.685,4.381,10.306C134.837,24.186,134.987,24.887,135.133,25.479z"/>
		<path fill-rule="evenodd" clip-rule="evenodd" fill="#C30303" d="M44.245,124.077c5.686-0.001,11.373-0.001,17.059-0.002
			c0.014,4.114-0.179,8.242,0.096,12.34c0.314,4.689,1.043,9.351,1.589,14.001c0.216,0,0.121,0.029,0.087-0.004
			c-7.682-7.528-14.343-15.797-18.646-25.771C44.351,124.461,44.306,124.266,44.245,124.077z"/>
		<path fill-rule="evenodd" clip-rule="evenodd" fill="#C40101" d="M161.559,152.626c-0.745,0.085-1.489,0.234-2.235,0.243
			c-3.228,0.035-6.456,0.03-9.684,0.039c-1.353-7.914-2.89-15.786-5.378-23.439c-0.314-0.969-0.649-1.933-1.061-3.155
			c0.452,0.22,0.715,0.321,0.953,0.465c2.553,1.543,5.11,3.078,7.645,4.653c0.477,0.297,1.03,0.676,1.248,1.153
			c2.323,5.102,4.613,10.219,6.849,15.359C160.555,149.459,161.01,151.063,161.559,152.626z"/>
		<path fill-rule="evenodd" clip-rule="evenodd" fill="#D90404" d="M111.403,183.599c0.905-0.079,1.809-0.217,2.715-0.228
			c2.59-0.031,5.182-0.012,7.773-0.012c-0.807,9.81-3.553,18.744-11.546,25.254c-2.632,2.143-5.641,3.598-8.948,4.408
			c-0.252,0.062-0.518,0.069-0.48,0.064c1.746-1.722,3.837-3.418,5.476-5.475c4.478-5.616,5.819-12.22,5.462-19.25
			C111.774,186.771,111.557,185.187,111.403,183.599z"/>
		<path fill-rule="evenodd" clip-rule="evenodd" fill="#9C0303" d="M132.13,8.15c3.387-0.455,6.502-0.004,9.413,1.535
			c0.565,0.299,1,0.901,1.414,1.427c2.585,3.286,4.374,6.896,4.168,11.204c-0.232,4.855-2.644,8.58-6.344,11.846
			c-1.23-1.606-2.4-3.111-3.532-4.644c-0.129-0.175-0.12-0.532-0.048-0.764c2.391-7.658,0.194-14.223-4.769-20.136
			C132.358,8.531,132.307,8.425,132.13,8.15z"/>
		<path fill-rule="evenodd" clip-rule="evenodd" fill="#B50303" d="M110.996,116.643c-3.385,0-6.769-0.001-10.153-0.002
			c1.347-4.344,2.475-8.771,4.086-13.014c3.375-8.888,7.621-17.372,12.67-25.44c0.082-0.13,0.186-0.246,0.482-0.297
			c-0.088,0.287-0.157,0.58-0.267,0.857c-3.024,7.651-4.905,15.578-6.089,23.718C111.038,107.191,111.228,111.917,110.996,116.643z"
			/>
		<path fill-rule="evenodd" clip-rule="evenodd" fill="#9D0303" d="M152.538,14.606c1.978,0.512,3.772,0.839,5.463,1.452
			c1.604,0.582,2.493,1.912,2.792,3.619c1.195,6.823-1.102,12.384-6.128,17.09c-1.632-1.929-3.502-3.35-6.142-3.403
			C151.84,27.636,155.759,22.097,152.538,14.606z"/>
		<path fill-rule="evenodd" clip-rule="evenodd" fill="#B10505" d="M186.307,104.519c2.213-4.24,3.356-8.703,2.806-13.515
			c-0.112-0.99-0.272-1.975-0.39-2.965c-0.104-0.871-0.665-1.153-1.448-1.33c-1.397-0.314-2.809-0.634-4.146-1.13
			c-1.488-0.551-2.763-1.456-3.357-3.045c-0.342-0.913-0.063-1.433,0.92-1.418c0.947,0.014,1.954,0.076,2.821,0.411
			c1.185,0.457,1.961-0.04,2.825-0.666c0.489-0.355,1.059-0.706,1.638-0.813c1.45-0.266,2.921-0.485,4.392-0.554
			c2.356-0.11,3.98,2.132,3.308,4.429c-0.445,1.525-1.461,2.617-2.628,3.632c-0.406,0.354-0.841,0.917-0.878,1.413
			c-0.249,3.338-0.381,6.685-0.587,10.026c-0.033,0.538-0.143,1.124-0.4,1.586c-1.062,1.907-2.607,3.302-4.661,4.102
			C186.448,104.626,186.378,104.572,186.307,104.519z"/>
		<path fill-rule="evenodd" clip-rule="evenodd" fill="#B10505" d="M186.52,104.681c-0.087,0.041-0.174,0.082-0.261,0.123
			c0.016-0.095,0.032-0.19,0.048-0.285C186.378,104.572,186.448,104.626,186.52,104.681z"/>
		<path fill-rule="evenodd" clip-rule="evenodd" fill="none" d="M167.357,73.366c0.074,0.229,0.147,0.458,0.222,0.687
			c-0.057,0.024-0.112,0.049-0.168,0.073c-0.098-0.168-0.196-0.337-0.294-0.505C167.197,73.535,167.277,73.45,167.357,73.366z"/>
	</g>
</g>
</svg>
